<svg preserveAspectRatio="none" overflow="visible" style="display: block;" width="17.0111" height="17.0111" viewBox="0 0 17.0111 17.0111" fill="none" xmlns="http://www.w3.org/2000/svg">
<g id="Frame">
<path id="Vector" d="M9.9231 1.60899V4.5367C9.9231 4.93366 9.9231 5.13214 10.0004 5.28376C10.0683 5.41713 10.1767 5.52556 10.3101 5.59352C10.4617 5.67077 10.6602 5.67077 11.0572 5.67077H13.9849M11.3407 9.2147H5.67032M11.3407 12.0499H5.67032M7.08791 6.37952H5.67032M9.9231 1.41794H6.23736C5.04647 1.41794 4.45102 1.41794 3.99616 1.64971C3.59606 1.85357 3.27076 2.17887 3.0669 2.57897C2.83513 3.03383 2.83513 3.62928 2.83513 4.82017V12.1916C2.83513 13.3826 2.83513 13.978 3.0669 14.4329C3.27076 14.833 3.59606 15.1582 3.99616 15.3621C4.45102 15.5939 5.04647 15.5939 6.23736 15.5939H10.7737C11.9646 15.5939 12.56 15.5939 13.0149 15.3621C13.415 15.1582 13.7402 14.833 13.9441 14.4329C14.1759 13.978 14.1759 13.3826 14.1759 12.1916V5.67072L9.9231 1.41794Z" stroke="black" stroke-width="1.06319" stroke-linecap="round" stroke-linejoin="round"/>
</g>
</svg>
